<svg width="12" height="12" viewBox="0 0 12 12" fill="none" xmlns="http://www.w3.org/2000/svg">
<path d="M8.33357 4.78629C8.42814 4.7232 8.54389 4.70027 8.65537 4.72253C8.71057 4.73356 8.76306 4.75534 8.80983 4.78665C8.85661 4.81796 8.89676 4.85817 8.928 4.905C8.95924 4.95183 8.98094 5.00435 8.99188 5.05956C9.00282 5.11477 9.00278 5.1716 8.99175 5.2268C8.98073 5.282 8.95894 5.33448 8.92763 5.38126C8.89633 5.42804 8.85611 5.46819 8.80929 5.49943L6.23786 7.21371C6.16743 7.2607 6.08466 7.28578 6 7.28578C5.91534 7.28578 5.83257 7.2607 5.76214 7.21371L3.19071 5.49943C3.09615 5.43634 3.03051 5.33828 3.00825 5.2268C2.98598 5.11532 3.00892 4.99957 3.072 4.905C3.13508 4.81043 3.23315 4.7448 3.34463 4.72253C3.4561 4.70027 3.57186 4.7232 3.66643 4.78629L6 6.342L8.33357 4.78629ZM6 11.1429C8.84014 11.1429 11.1429 8.84014 11.1429 6C11.1429 3.15986 8.84014 0.857143 6 0.857143C3.15986 0.857143 0.857143 3.15986 0.857143 6C0.857143 8.84014 3.15986 11.1429 6 11.1429ZM6 12C2.68629 12 0 9.31371 0 6C0 2.68629 2.68629 0 6 0C9.31371 0 12 2.68629 12 6C12 9.31371 9.31371 12 6 12Z" fill="#4D15BD"/>
</svg>
