<svg width="24" height="24" viewBox="0 0 24 24" fill="none" xmlns="http://www.w3.org/2000/svg">
<circle cx="12" cy="12" r="12" fill="white"/>
<g clip-path="url(#clip0_105_630)">
<path d="M12.0001 1.71436C6.32236 1.71436 1.71436 6.32236 1.71436 12.0001C1.71436 17.6778 6.32236 22.2858 12.0001 22.2858C17.6778 22.2858 22.2858 17.6778 22.2858 12.0001C22.2858 6.32236 17.6778 1.71436 12.0001 1.71436ZM12.0001 21.1955C6.91893 21.1955 2.80464 17.0812 2.80464 12.0001C2.80464 6.91893 6.91893 2.80464 12.0001 2.80464C17.0812 2.80464 21.1955 6.91893 21.1955 12.0001C21.1955 17.0812 17.0812 21.1955 12.0001 21.1955Z" fill="#26A17B"/>
<path d="M17.6263 12.3189C17.6263 11.424 15.1989 11.0743 13.2446 10.9611V9.72685H16.5052V7.42285H7.51546V9.72685H10.776V10.9611C8.82175 11.064 6.38403 11.424 6.38403 12.3189C6.38403 13.2137 8.81146 13.5634 10.7657 13.6766V18.0994H13.2446V13.6766C15.1989 13.5634 17.6263 13.2137 17.6263 12.3189V12.3189ZM12 13.296C8.62632 13.296 6.78518 12.648 6.78518 12.3189C6.78518 12.0309 8.18403 11.5063 10.7657 11.3726V13.0491H13.2446V11.3726C15.8263 11.5063 17.2252 12.0309 17.2252 12.3189C17.2149 12.648 15.3737 13.296 12 13.296V13.296Z" fill="#26A17B"/>
</g>
<defs>
<clipPath id="clip0_105_630">
<rect width="20.5714" height="20.5714" fill="white" transform="translate(1.71436 1.71436)"/>
</clipPath>
</defs>
</svg>
